<svg width="143" height="14" viewBox="0 0 143 14" fill="none" xmlns="http://www.w3.org/2000/svg">
<path fill-rule="evenodd" clip-rule="evenodd" d="M9.61919 9.54171V5.28287C9.61919 4.07476 8.93797 3.50122 7.79397 3.50122C6.84275 3.50122 6.02015 4.03817 5.6602 4.57506C5.42882 3.9039 4.85041 3.50122 3.9378 3.50122C2.98658 3.50122 2.16399 4.06254 1.90686 4.41642V3.64771H0.274414V9.54171H1.90686V5.57578C2.15112 5.24628 2.6267 4.88019 3.19223 4.88019C3.86065 4.88019 4.11771 5.27065 4.11771 5.81982V9.54171H5.76303V5.56356C5.99441 5.24628 6.46999 4.88019 7.04839 4.88019C7.71682 4.88019 7.97387 5.27065 7.97387 5.81982L7.97394 9.54171H9.61919ZM14.1052 9.68813C12.0615 9.68813 10.8275 8.27257 10.8275 6.5886C10.8275 4.91678 12.0614 3.50128 14.1052 3.50128C16.1619 3.50128 17.3959 4.91684 17.3959 6.5886C17.3959 8.27257 16.1619 9.68813 14.1052 9.68813ZM14.1052 8.30923C15.1207 8.30923 15.6991 7.51602 15.6991 6.5886C15.6991 5.6734 15.1207 4.88019 14.1052 4.88019C13.0897 4.88019 12.5242 5.6734 12.5242 6.5886C12.5242 7.51602 13.0898 8.30923 14.1052 8.30923ZM24.427 9.54171V5.38049C24.427 4.2334 23.7714 3.50122 22.4089 3.50122C21.3935 3.50122 20.6351 3.96493 20.2366 4.41642V3.64771H18.6041V9.54171H20.2366V5.57578C20.5065 5.22191 21.0078 4.88019 21.6505 4.88019C22.3446 4.88019 22.7945 5.16088 22.7945 5.97847V9.54171H24.427V9.54171ZM28.9258 9.68813C26.8821 9.68813 25.6481 8.27257 25.6481 6.5886C25.6481 4.91678 26.882 3.50128 28.9258 3.50128C30.9824 3.50128 32.2165 4.91684 32.2165 6.5886C32.2165 8.27257 30.9825 9.68813 28.9258 9.68813ZM28.9258 8.30923C29.9413 8.30923 30.5197 7.51602 30.5197 6.5886C30.5197 5.6734 29.9413 4.88019 28.9258 4.88019C27.9103 4.88019 27.3448 5.6734 27.3448 6.5886C27.3448 7.51602 27.9104 8.30923 28.9258 8.30923ZM35.0571 7.65022C35.3271 8.02853 35.9312 8.30916 36.4582 8.30916C37.4094 8.30916 38.0392 7.62578 38.0392 6.60075C38.0392 5.57572 37.4094 4.88012 36.4582 4.88012C35.9312 4.88012 35.3271 5.17297 35.0571 5.5635V7.65022ZM35.0571 9.54171H33.4247V1.40234H35.0571V4.40426C35.5456 3.80634 36.2397 3.50122 36.9724 3.50122C38.5534 3.50122 39.7231 4.67267 39.7231 6.60075C39.7231 8.56542 38.5406 9.68807 36.9724 9.68807C36.2269 9.68807 35.5456 9.37078 35.0571 8.78502V9.54171V9.54171ZM46.3172 9.54171H44.6848V8.93158C44.2606 9.4075 43.5279 9.68813 42.7181 9.68813C41.7283 9.68813 40.5587 9.05356 40.5587 7.73568C40.5587 6.35677 41.7284 5.83204 42.7181 5.83204C43.5408 5.83204 44.2734 6.0883 44.6848 6.55201V5.7588C44.6848 5.16088 44.1449 4.77036 43.3223 4.77036C42.6538 4.77036 42.0369 5.00224 41.5098 5.46595L40.8928 4.4287C41.6512 3.79413 42.6281 3.50128 43.605 3.50128C45.0189 3.50128 46.3171 4.03824 46.3171 5.73443L46.3172 9.54171V9.54171ZM43.3737 8.63867C43.9007 8.63867 44.4148 8.4678 44.6848 8.12615V7.39396C44.4148 7.05231 43.9007 6.88145 43.3737 6.88145C42.731 6.88145 42.2039 7.19873 42.2039 7.77227C42.2039 8.32138 42.7309 8.63867 43.3737 8.63867V8.63867ZM53.7596 9.54171V5.38049C53.7596 4.2334 53.1041 3.50122 51.7415 3.50122C50.7261 3.50122 49.9677 3.96493 49.5692 4.41642V3.64771H47.9368V9.54171H49.5692V5.57578C49.8392 5.22191 50.3405 4.88019 50.9832 4.88019C51.6773 4.88019 52.1272 5.16088 52.1272 5.97847V9.54171H53.7596V9.54171ZM61.4463 9.54171L58.9141 6.32012L61.3692 3.64771H59.3639L57.0116 6.27131V1.40234H55.3792V9.54171H57.0116V8.02853L57.7572 7.27198L59.4025 9.54171H61.4463V9.54171Z" fill="black"/>
<path fill-rule="evenodd" clip-rule="evenodd" d="M138.055 2.516H139.393V6.55414H139.468L141.207 4.61436L142.44 4.61132L140.533 6.73159L142.831 9.3832H141.291L139.412 6.91513H139.393V9.3832H138.055V2.516V2.516ZM74.4807 2.82313V6.58873C74.4807 7.87157 74.8808 8.57272 76.0018 8.57272C77.0745 8.57272 77.5036 7.72256 77.5036 6.66294V2.82313H78.7675V6.89741C78.7675 8.55398 77.6246 9.49258 75.9621 9.49258C74.0586 9.49258 73.0688 8.61959 73.0688 6.83186L73.0689 2.82313H74.4807V2.82313ZM81.7218 5.24893C82.1743 4.79996 82.8042 4.58437 83.4361 4.58437C84.608 4.58437 85.2282 5.18228 85.2282 6.3624V9.37906L83.8984 9.37912V6.50429C83.8984 5.84787 83.5883 5.41669 82.8957 5.41669C82.2445 5.41669 81.733 5.81989 81.733 6.58866V9.37906L80.4015 9.37912V4.69575H81.7218V5.24893V5.24893ZM86.7932 9.37912H88.1252V4.69575H86.7932V9.37912ZM86.6625 3.29137C86.6625 2.93594 86.9823 2.56985 87.4348 2.56985C87.8954 2.56985 88.2543 2.92624 88.2543 3.29137C88.2543 3.69353 87.9458 4.07792 87.4541 4.07792C86.9828 4.07792 86.6625 3.69353 86.6625 3.29137ZM91.0719 9.37912L88.9403 4.6759H90.3516C90.7832 5.7533 91.231 6.7667 91.6509 8.06829L91.6712 8.06835C92.1238 6.7667 92.5496 5.75337 93.0097 4.67597L94.2591 4.6759L92.0022 9.37912H91.0719V9.37912ZM98.2225 6.47637C98.2744 5.76248 98.0034 5.27692 97.3441 5.27692C96.5798 5.27692 96.2371 5.84794 96.2515 6.47637H98.2225ZM96.2295 7.15057C96.1996 8.0317 96.8604 8.68611 97.6917 8.68611C98.1855 8.68611 98.7039 8.52695 99.036 8.3109L99.4163 8.96732C98.735 9.34156 98.0227 9.49258 97.4522 9.49258C95.9392 9.49258 94.8081 8.4894 94.8081 6.94422C94.8081 5.50125 95.9286 4.58449 97.3618 4.58449C98.9246 4.58449 99.5763 5.75446 99.4778 7.1507L96.2295 7.15057V7.15057ZM102.092 5.51993H102.111L102.382 5.15487C102.531 4.94794 102.832 4.58437 103.242 4.58437C103.543 4.58437 103.865 4.73435 104.145 5.00483L103.643 5.86662C103.423 5.76241 103.282 5.70746 103.013 5.70746C102.552 5.70746 102.102 6.05423 102.102 7.06504V9.379L100.765 9.37912V4.69575H102.092V5.51993V5.51993ZM107.701 5.57591C107.401 5.37001 107.091 5.27692 106.849 5.27692C106.549 5.27692 106.248 5.43556 106.248 5.75433C106.248 6.12909 106.73 6.34514 107.29 6.72752C108.003 7.22633 108.212 7.71293 108.212 8.14154C108.212 8.79951 107.439 9.49251 106.339 9.49251C105.647 9.49251 105.137 9.26677 104.667 8.95814L105.088 8.3109C105.386 8.53717 105.816 8.76039 106.176 8.76039C106.56 8.76039 106.899 8.57279 106.899 8.17974C106.899 7.73943 106.377 7.49636 105.898 7.17759C105.326 6.81305 104.937 6.45659 104.937 5.87697C104.937 5.13566 105.696 4.58449 106.678 4.58449C107.231 4.58449 107.77 4.71463 108.133 5.01568L107.701 5.57597L107.701 5.57591ZM111.496 6.88772C110.846 7.0845 110.516 7.43074 110.516 7.96414C110.516 8.37704 110.796 8.65819 111.119 8.65819C111.648 8.65819 112.34 8.03939 112.241 6.66301L111.496 6.88772V6.88772ZM111.919 8.93015C111.558 9.2113 111.097 9.49251 110.638 9.49251C109.856 9.49251 109.202 8.93016 109.202 8.06835C109.202 7.17753 109.895 6.68182 111.058 6.36246L112.241 6.03451C112.171 5.60435 111.759 5.33335 111.33 5.33335C110.757 5.33335 110.356 5.53014 110.006 5.81129L109.574 5.221C110.196 4.74359 110.806 4.58443 111.496 4.58443C112.42 4.58443 113.553 4.86357 113.553 6.32639V8.23618C113.553 8.61138 113.602 9.05272 113.763 9.37919L112.351 9.37912C112.248 9.21945 112.22 8.94897 112.22 8.69575L111.919 8.93015V8.93015ZM115.046 9.37912H116.379V2.49512H115.046V9.37912V9.37912ZM128.18 6.88772C127.527 7.0845 127.197 7.43074 127.197 7.96414C127.197 8.37704 127.476 8.65819 127.798 8.65819C128.327 8.65819 129.019 8.03939 128.922 6.66301L128.18 6.88772V6.88772ZM128.597 8.93015C128.239 9.2113 127.777 9.49251 127.316 9.49251C126.535 9.49251 125.883 8.93016 125.883 8.06835C125.883 7.17753 126.575 6.68182 127.738 6.36246L128.922 6.03451C128.849 5.60435 128.44 5.33335 128.006 5.33335C127.437 5.33335 127.035 5.53014 126.685 5.81129L126.254 5.221C126.875 4.74359 127.487 4.58443 128.18 4.58443C129.099 4.58443 130.231 4.86357 130.231 6.32639V8.23618C130.231 8.61138 130.28 9.05272 130.44 9.37919L129.03 9.37912C128.93 9.21945 128.897 8.94897 128.897 8.69575L128.597 8.93015V8.93015ZM133.046 5.24893C133.498 4.79996 134.13 4.58437 134.76 4.58437C135.932 4.58437 136.553 5.18228 136.553 6.3624V9.37906L135.221 9.37912V6.50429C135.221 5.84787 134.91 5.41669 134.219 5.41669C133.567 5.41669 133.057 5.81989 133.057 6.58866V9.37906L131.725 9.37912V4.69575H133.046V5.24893V5.24893ZM121.24 8.5905H121.96C122.742 8.5905 123.335 8.20715 123.335 7.47748C123.335 6.70871 122.724 6.38128 121.952 6.38128H121.24V8.5905ZM121.24 5.57591H121.683C122.495 5.57591 123.047 5.08932 123.047 4.47918C123.047 3.89956 122.583 3.64738 121.973 3.64738L121.239 3.64731V5.57591H121.24V5.57591ZM119.828 9.3969V2.84091H122.364C123.545 2.84091 124.378 3.34632 124.378 4.23611C124.378 5.28455 123.466 5.71671 122.975 5.83773V5.85654C123.847 5.89468 124.818 6.45549 124.818 7.45764C124.818 8.5905 123.805 9.3969 122.154 9.3969H119.828Z" fill="black" fill-opacity="0.6"/>
<path fill-rule="evenodd" clip-rule="evenodd" d="M66.9478 0.898438H67.4833V13.1014H66.9478V0.898438Z" fill="black" fill-opacity="0.4"/>
</svg>
