<svg width="62" height="9" viewBox="0 0 62 9" fill="none" xmlns="http://www.w3.org/2000/svg">
<path fill-rule="evenodd" clip-rule="evenodd" d="M9.34478 8.64327V4.38443C9.34478 3.17632 8.66355 2.60278 7.51955 2.60278C6.56833 2.60278 5.74574 3.13973 5.38579 3.67662C5.1544 3.00546 4.576 2.60278 3.66339 2.60278C2.71217 2.60278 1.88957 3.16411 1.63245 3.51798V2.74927H0V8.64327H1.63245V4.67735C1.8767 4.34784 2.35228 3.98175 2.91781 3.98175C3.58624 3.98175 3.8433 4.37222 3.8433 4.92139V8.64327H5.48861V4.66512C5.72 4.34784 6.19558 3.98175 6.77398 3.98175C7.4424 3.98175 7.69946 4.37222 7.69946 4.92139L7.69953 8.64327H9.34478ZM13.8308 8.7897C11.7871 8.7897 10.5531 7.37413 10.5531 5.69016C10.5531 4.01834 11.787 2.60284 13.8308 2.60284C15.8874 2.60284 17.1215 4.01841 17.1215 5.69016C17.1215 7.37413 15.8875 8.7897 13.8308 8.7897ZM13.8308 7.41079C14.8463 7.41079 15.4247 6.61758 15.4247 5.69016C15.4247 4.77496 14.8463 3.98175 13.8308 3.98175C12.8153 3.98175 12.2498 4.77496 12.2498 5.69016C12.2498 6.61758 12.8154 7.41079 13.8308 7.41079ZM24.1526 8.64327V4.48205C24.1526 3.33497 23.497 2.60278 22.1345 2.60278C21.1191 2.60278 20.3607 3.06649 19.9622 3.51798V2.74927H18.3297V8.64327H19.9622V4.67735C20.2321 4.32347 20.7334 3.98175 21.3761 3.98175C22.0702 3.98175 22.5201 4.26245 22.5201 5.08003V8.64327H24.1526V8.64327ZM28.6514 8.7897C26.6077 8.7897 25.3736 7.37413 25.3736 5.69016C25.3736 4.01834 26.6076 2.60284 28.6514 2.60284C30.708 2.60284 31.942 4.01841 31.942 5.69016C31.942 7.37413 30.7081 8.7897 28.6514 8.7897ZM28.6514 7.41079C29.6668 7.41079 30.2453 6.61758 30.2453 5.69016C30.2453 4.77496 29.6669 3.98175 28.6514 3.98175C27.6359 3.98175 27.0704 4.77496 27.0704 5.69016C27.0704 6.61758 27.636 7.41079 28.6514 7.41079ZM34.7827 6.75178C35.0526 7.13009 35.6568 7.41072 36.1838 7.41072C37.135 7.41072 37.7648 6.72735 37.7648 5.70231C37.7648 4.67728 37.135 3.98169 36.1838 3.98169C35.6568 3.98169 35.0526 4.27453 34.7827 4.66506V6.75178ZM34.7827 8.64327H33.1503V0.503906H34.7827V3.50582C35.2712 2.90791 35.9653 2.60278 36.698 2.60278C38.279 2.60278 39.4487 3.77424 39.4487 5.70231C39.4487 7.66698 38.2662 8.78963 36.698 8.78963C35.9524 8.78963 35.2712 8.47235 34.7827 7.88658V8.64327V8.64327ZM46.0428 8.64327H44.4104V8.03314C43.9862 8.50906 43.2535 8.7897 42.4437 8.7897C41.4539 8.7897 40.2843 8.15512 40.2843 6.83724C40.2843 5.45834 41.454 4.9336 42.4437 4.9336C43.2664 4.9336 43.999 5.18986 44.4104 5.65357V4.86036C44.4104 4.26244 43.8705 3.87192 43.0478 3.87192C42.3794 3.87192 41.7625 4.1038 41.2354 4.56751L40.6184 3.53026C41.3768 2.89569 42.3537 2.60284 43.3306 2.60284C44.7445 2.60284 46.0427 3.1398 46.0427 4.83599L46.0428 8.64327V8.64327ZM43.0992 7.74023C43.6262 7.74023 44.1404 7.56937 44.4104 7.22771V6.49553C44.1404 6.15387 43.6262 5.98301 43.0992 5.98301C42.4566 5.98301 41.9295 6.30029 41.9295 6.87383C41.9295 7.42294 42.4565 7.74023 43.0992 7.74023V7.74023ZM53.4852 8.64327V4.48205C53.4852 3.33497 52.8297 2.60278 51.4671 2.60278C50.4517 2.60278 49.6933 3.06649 49.2948 3.51798V2.74927H47.6624V8.64327H49.2948V4.67735C49.5648 4.32347 50.0661 3.98175 50.7088 3.98175C51.4028 3.98175 51.8528 4.26245 51.8528 5.08003V8.64327H53.4852V8.64327ZM61.1719 8.64327L58.6397 5.42168L61.0948 2.74927H59.0895L56.7372 5.37288V0.503906H55.1048V8.64327H56.7372V7.1301L57.4827 6.37354L59.1281 8.64327H61.1719V8.64327Z" fill="black"/>
</svg>
