<?xml version="1.0" encoding="utf-8"?>
<!-- Generator: Adobe Illustrator 23.1.0, SVG Export Plug-In . SVG Version: 6.00 Build 0)  -->
<svg version="1.1" id="Layer_1" xmlns="http://www.w3.org/2000/svg" xmlns:xlink="http://www.w3.org/1999/xlink" x="0px" y="0px"
	 viewBox="0 0 320 120" style="enable-background:new 0 0 320 120;" xml:space="preserve">
<style type="text/css">
	.st0{fill-rule:evenodd;clip-rule:evenodd;}
	.st1{fill-rule:evenodd;clip-rule:evenodd;fill-opacity:0.6;}
	.st2{fill-rule:evenodd;clip-rule:evenodd;fill-opacity:0.4;}
</style>
<path class="st0" d="M38.63,61.33v-8.49c0-2.41-1.36-3.55-3.64-3.55c-1.9,0-3.54,1.07-4.25,2.14c-0.46-1.34-1.61-2.14-3.43-2.14
	c-1.9,0-3.54,1.12-4.05,1.82v-1.53H20v11.75h3.25v-7.91c0.49-0.66,1.44-1.39,2.56-1.39c1.33,0,1.84,0.78,1.84,1.87v7.42h3.28V53.4
	c0.46-0.63,1.41-1.36,2.56-1.36c1.33,0,1.84,0.78,1.84,1.87l0,7.42H38.63z M47.57,61.62c-4.07,0-6.53-2.82-6.53-6.18
	c0-3.33,2.46-6.15,6.53-6.15c4.1,0,6.56,2.82,6.56,6.15C54.13,58.8,51.67,61.62,47.57,61.62z M47.57,58.88
	c2.02,0,3.18-1.58,3.18-3.43c0-1.82-1.15-3.41-3.18-3.41s-3.15,1.58-3.15,3.41C44.42,57.29,45.55,58.88,47.57,58.88z M68.15,61.33
	v-8.3c0-2.29-1.31-3.75-4.02-3.75c-2.02,0-3.54,0.92-4.33,1.82v-1.53h-3.25v11.75h3.25v-7.91c0.54-0.71,1.54-1.39,2.82-1.39
	c1.38,0,2.28,0.56,2.28,2.19v7.1H68.15L68.15,61.33z M77.12,61.62c-4.07,0-6.53-2.82-6.53-6.18c0-3.33,2.46-6.15,6.53-6.15
	c4.1,0,6.56,2.82,6.56,6.15C83.68,58.8,81.22,61.62,77.12,61.62z M77.12,58.88c2.02,0,3.18-1.58,3.18-3.43
	c0-1.82-1.15-3.41-3.18-3.41c-2.02,0-3.15,1.58-3.15,3.41C73.97,57.29,75.09,58.88,77.12,58.88z M89.34,57.56
	c0.54,0.75,1.74,1.31,2.79,1.31c1.9,0,3.15-1.36,3.15-3.41c0-2.04-1.26-3.43-3.15-3.43c-1.05,0-2.25,0.58-2.79,1.36V57.56z
	 M89.34,61.33h-3.25V45.11h3.25v5.98c0.97-1.19,2.36-1.8,3.82-1.8c3.15,0,5.48,2.34,5.48,6.18c0,3.92-2.36,6.15-5.48,6.15
	c-1.49,0-2.84-0.63-3.82-1.8V61.33L89.34,61.33z M111.79,61.33h-3.25v-1.22c-0.85,0.95-2.31,1.51-3.92,1.51
	c-1.97,0-4.3-1.27-4.3-3.89c0-2.75,2.33-3.79,4.3-3.79c1.64,0,3.1,0.51,3.92,1.44v-1.58c0-1.19-1.08-1.97-2.72-1.97
	c-1.33,0-2.56,0.46-3.61,1.39l-1.23-2.07c1.51-1.27,3.46-1.85,5.41-1.85c2.82,0,5.41,1.07,5.41,4.45L111.79,61.33L111.79,61.33z
	 M105.92,59.53c1.05,0,2.08-0.34,2.61-1.02v-1.46c-0.54-0.68-1.56-1.02-2.61-1.02c-1.28,0-2.33,0.63-2.33,1.78
	C103.59,58.9,104.64,59.53,105.92,59.53L105.92,59.53z M126.62,61.33v-8.3c0-2.29-1.31-3.75-4.02-3.75c-2.02,0-3.54,0.92-4.33,1.82
	v-1.53h-3.25v11.75h3.25v-7.91c0.54-0.71,1.54-1.39,2.82-1.39c1.38,0,2.28,0.56,2.28,2.19v7.1H126.62L126.62,61.33z M141.95,61.33
	l-5.05-6.42l4.89-5.33h-4l-4.69,5.23v-9.71h-3.25v16.23h3.25v-3.02l1.49-1.51l3.28,4.52H141.95L141.95,61.33z"/>
<path class="st1" d="M294.67,47.33h2.67v8.05h0.15l3.47-3.87l2.46-0.01l-3.8,4.23l4.58,5.29h-3.07l-3.75-4.92h-0.04v4.92h-2.67
	V47.33L294.67,47.33z M167.93,47.94v7.51c0,2.56,0.8,3.96,3.03,3.96c2.14,0,2.99-1.69,2.99-3.81v-7.65h2.52v8.12
	c0,3.3-2.28,5.17-5.59,5.17c-3.79,0-5.77-1.74-5.77-5.3l0-7.99H167.93L167.93,47.94z M182.37,52.77c0.9-0.9,2.16-1.32,3.42-1.32
	c2.34,0,3.57,1.19,3.57,3.54v6.01l-2.65,0v-5.73c0-1.31-0.62-2.17-2-2.17c-1.3,0-2.32,0.8-2.32,2.34v5.56l-2.65,0v-9.34h2.63V52.77
	L182.37,52.77z M192.48,61.01h2.66v-9.34h-2.66V61.01z M192.22,48.87c0-0.71,0.64-1.44,1.54-1.44c0.92,0,1.63,0.71,1.63,1.44
	c0,0.8-0.62,1.57-1.6,1.57C192.85,50.44,192.22,49.67,192.22,48.87z M201.01,61.01l-4.25-9.38h2.81c0.86,2.15,1.75,4.17,2.59,6.76
	l0.04,0c0.9-2.59,1.75-4.61,2.67-6.76l2.49,0l-4.5,9.38H201.01L201.01,61.01z M215.26,55.22c0.1-1.42-0.44-2.39-1.75-2.39
	c-1.52,0-2.21,1.14-2.18,2.39H215.26z M211.29,56.57c-0.06,1.76,1.26,3.06,2.91,3.06c0.98,0,2.02-0.32,2.68-0.75l0.76,1.31
	c-1.36,0.75-2.78,1.05-3.92,1.05c-3.02,0-5.27-2-5.27-5.08c0-2.88,2.23-4.7,5.09-4.7c3.12,0,4.41,2.33,4.22,5.12L211.29,56.57
	L211.29,56.57z M222.97,53.31h0.04l0.54-0.73c0.3-0.41,0.9-1.14,1.71-1.14c0.6,0,1.24,0.3,1.8,0.84l-1,1.72
	c-0.44-0.21-0.72-0.32-1.26-0.32c-0.92,0-1.82,0.69-1.82,2.71v4.61l-2.67,0v-9.34h2.65V53.31L222.97,53.31z M234.16,53.43
	c-0.6-0.41-1.22-0.6-1.7-0.6c-0.6,0-1.2,0.32-1.2,0.95c0,0.75,0.96,1.18,2.08,1.94c1.42,0.99,1.84,1.96,1.84,2.82
	c0,1.31-1.54,2.69-3.73,2.69c-1.38,0-2.4-0.45-3.33-1.07l0.84-1.29c0.59,0.45,1.45,0.9,2.17,0.9c0.77,0,1.44-0.37,1.44-1.16
	c0-0.88-1.04-1.36-2-2c-1.14-0.73-1.92-1.44-1.92-2.59c0-1.48,1.51-2.58,3.47-2.58c1.1,0,2.18,0.26,2.9,0.86L234.16,53.43
	L234.16,53.43z M241.72,56.04c-1.3,0.39-1.95,1.08-1.95,2.15c0,0.82,0.56,1.38,1.2,1.38c1.05,0,2.43-1.23,2.24-3.98L241.72,56.04
	L241.72,56.04z M242.57,60.11c-0.72,0.56-1.64,1.12-2.55,1.12c-1.56,0-2.86-1.12-2.86-2.84c0-1.78,1.38-2.76,3.7-3.4l2.36-0.65
	c-0.14-0.86-0.96-1.4-1.82-1.4c-1.14,0-1.94,0.39-2.64,0.95l-0.86-1.18c1.24-0.95,2.46-1.27,3.83-1.27c1.84,0,4.1,0.56,4.1,3.47
	v3.81c0,0.75,0.1,1.63,0.42,2.28l-2.81,0c-0.21-0.32-0.26-0.86-0.26-1.36L242.57,60.11L242.57,60.11z M248.8,61.01h2.66V47.28h-2.66
	V61.01L248.8,61.01z M274.98,56.04c-1.3,0.39-1.96,1.08-1.96,2.15c0,0.82,0.56,1.38,1.2,1.38c1.05,0,2.43-1.23,2.24-3.98
	L274.98,56.04L274.98,56.04z M275.81,60.11c-0.71,0.56-1.63,1.12-2.55,1.12c-1.56,0-2.86-1.12-2.86-2.84c0-1.78,1.38-2.76,3.7-3.4
	l2.36-0.65c-0.15-0.86-0.96-1.4-1.83-1.4c-1.13,0-1.94,0.39-2.63,0.95l-0.86-1.18c1.24-0.95,2.46-1.27,3.84-1.27
	c1.83,0,4.09,0.56,4.09,3.47v3.81c0,0.75,0.1,1.63,0.42,2.28l-2.81,0c-0.2-0.32-0.27-0.86-0.27-1.36L275.81,60.11L275.81,60.11z
	 M284.68,52.77c0.9-0.9,2.16-1.32,3.42-1.32c2.34,0,3.57,1.19,3.57,3.54v6.01l-2.66,0v-5.73c0-1.31-0.62-2.17-2-2.17
	c-1.3,0-2.32,0.8-2.32,2.34v5.56l-2.66,0v-9.34h2.63V52.77L284.68,52.77z M261.15,59.44h1.44c1.56,0,2.74-0.76,2.74-2.22
	c0-1.53-1.22-2.19-2.76-2.19h-1.42V59.44z M261.15,53.43h0.88c1.62,0,2.72-0.97,2.72-2.19c0-1.16-0.92-1.66-2.14-1.66l-1.46,0
	L261.15,53.43L261.15,53.43L261.15,53.43z M258.33,61.04V47.97h5.06c2.35,0,4.01,1.01,4.01,2.78c0,2.09-1.82,2.95-2.8,3.19v0.04
	c1.74,0.08,3.67,1.19,3.67,3.19c0,2.26-2.02,3.87-5.31,3.87H258.33z"/>
<path class="st2" d="M152.91,44.1h1.07v24.33h-1.07V44.1z"/>
</svg>
