<svg width="131" height="23" viewBox="0 0 131 23" fill="none" xmlns="http://www.w3.org/2000/svg">
<path d="M25.042 19.2679H21.8242V7.90332H33.4082V19.2679H30.1911V10.1111H25.042V19.2679Z" fill="#60B238"/>
<path d="M34.9688 11.0198V22.2716H37.9341V18.4237C38.9278 19.4958 40.5467 19.5768 40.9369 19.5768C43.765 19.5768 45.5005 17.774 45.5005 15.1601C45.5005 12.4328 43.7839 10.7119 40.9957 10.7119C40.2928 10.7119 38.9278 10.8256 37.7966 12.011H37.7383L37.7575 11.0198H34.9688ZM37.7966 15.1274C37.7966 12.8226 39.2208 12.3681 40.1181 12.3681C40.9957 12.3681 42.4192 12.8226 42.4192 15.1274C42.4192 16.5568 41.8149 17.921 40.1181 17.921C38.3824 17.921 37.7966 16.5568 37.7966 15.1274Z" fill="#60B238"/>
<path d="M52.8524 18.2789C51.7607 19.3009 50.7089 19.5775 49.5376 19.5775C46.3393 19.5775 46.2217 17.1744 46.2217 16.1843V11.0205H49.1863V15.7941C49.1863 17.4344 49.7534 17.9218 50.8445 17.9218C52.7159 17.9218 52.8524 16.2492 52.8524 15.6484V11.0205H55.8182V19.2685H52.8524V18.2789Z" fill="#60B238"/>
<path d="M60.0696 15.7941H61.8836C63.2867 15.7941 63.5795 16.2165 63.5795 16.7687C63.5795 17.1256 63.3837 17.613 61.9203 17.613H60.0696V15.7941ZM57.105 11.0205V19.2685H62.9949C65.14 19.2685 66.6219 18.8465 66.6219 17.1581C66.6219 15.8592 65.8993 15.2911 64.262 14.9991V14.9501C65.3349 14.804 66.2715 14.1381 66.2715 13.0182C66.2715 11.0205 63.9308 11.0205 63.0141 11.0205H57.105ZM60.0696 12.6774H61.6676C62.5066 12.6774 63.2274 12.8072 63.2274 13.4885C63.2274 14.2361 62.0967 14.2522 61.6093 14.2522H60.0696V12.6774Z" fill="#60B238"/>
<path d="M70.3661 13.6829C70.3661 12.4652 71.6531 12.3681 72.1801 12.3681C72.5119 12.3681 73.7397 12.3845 73.7797 13.4558C73.7797 13.537 73.7797 13.6019 73.7797 13.6829C73.7212 14.4947 72.941 14.3324 70.7575 14.6083C68.962 14.8518 67.0703 15.306 67.0703 17.19C67.0703 17.872 67.3631 19.5768 70.5226 19.5768C71.7325 19.5768 73.0588 19.2677 73.8376 18.4564H73.8978L74.1502 19.2677H77.2704V19.1221C76.705 19.0082 76.6659 18.4564 76.6851 17.5632L76.7436 13.7961C76.7635 12.8389 76.6659 10.7119 72.2 10.7119C71.1271 10.7119 67.675 10.809 67.5385 13.6829H70.3661ZM73.7989 15.8584C73.7989 17.5147 72.3555 17.921 71.6348 17.921C71.0877 17.921 70.1127 17.7418 70.1127 16.9629C70.1127 16.037 71.224 15.8584 71.8489 15.7772C72.9996 15.6148 72.9017 15.6638 73.7989 15.3386V15.8584Z" fill="#60B238"/>
<path d="M77.0752 12.6774V11.0205H86.5921V12.6774H83.3157V19.2685H80.3518V12.6774H77.0752Z" fill="#60B238"/>
<path d="M90.3767 10.1111H97.7677V7.90332H87.1577V19.2679H93.6716C96.8318 19.2679 98.8591 18.1646 98.8591 15.8422C98.8591 12.2061 94.803 12.1244 93.6716 12.1244H90.3767V10.1111ZM90.3767 14.3326H93.0476C93.8297 14.3326 95.3886 14.4141 95.3886 15.7774C95.3886 16.8491 94.2569 17.0599 92.99 17.0599H90.3767V14.3326Z" fill="#60B238"/>
<path d="M102.722 13.6829C102.722 12.4652 104.01 12.3681 104.535 12.3681C104.867 12.3681 106.096 12.3845 106.136 13.4558C106.136 13.537 106.136 13.6019 106.136 13.6829C106.076 14.4947 105.297 14.3324 103.111 14.6083C101.318 14.8518 99.4263 15.306 99.4263 17.19C99.4263 17.872 99.7181 19.5768 102.878 19.5768C104.087 19.5768 105.413 19.2677 106.193 18.4564H106.251L106.505 19.2677H109.625V19.1221C109.062 19.0082 109.021 18.4564 109.041 17.5632L109.099 13.7961C109.119 12.8389 109.021 10.7119 104.554 10.7119C103.483 10.7119 100.03 10.809 99.8937 13.6829H102.722ZM106.154 15.8584C106.154 17.5147 104.711 17.921 103.99 17.921C103.444 17.921 102.469 17.7418 102.469 16.9629C102.469 16.037 103.579 15.8584 104.203 15.7772C105.355 15.6148 105.257 15.6638 106.154 15.3386V15.8584Z" fill="#60B238"/>
<path d="M113.331 19.2685H110.366V11.0205H113.331V14.122H116.9V11.0205H119.865V19.2685H116.9V15.7779H113.331V19.2685Z" fill="#60B238"/>
<path d="M127.354 11.0205H130.648L126.573 14.8845L130.844 19.2685H127.372L124.174 15.6645H124.116V19.2685H121.152V11.0205H124.116V14.3332H124.174L127.354 11.0205Z" fill="#60B238"/>
<path d="M0.294922 19.2974H7.72025V11.8799H0.294922V19.2974Z" fill="#373435"/>
<path d="M15.3689 4.25038C15.3689 6.7726 15.3689 12.8557 15.3689 15.3779C14.6636 15.3779 14.5394 15.3779 13.8541 15.3779C13.2 9.87477 9.73853 6.41787 4.22863 5.76452C4.22863 5.07991 4.22863 4.9563 4.22863 4.25038C6.75376 4.25038 12.8437 4.25038 15.3689 4.25038ZM0.302734 0.329102V9.56147H2.26627C7.4334 9.56147 10.0533 12.1782 10.0533 17.3382V19.2997H19.2948V0.329102H0.302734Z" fill="#60B238"/>
</svg>
