<svg xmlns="http://www.w3.org/2000/svg" xmlns:xlink="http://www.w3.org/1999/xlink" id="Layer_1" x="0" y="0" version="1.1" viewBox="0 0 320 120" xml:space="preserve" style="enable-background:new 0 0 320 120"><style type="text/css">.st0{fill:#60b238}.st1{fill:#373435}</style><path d="M76.12,67.82h-6.94v-24.5h24.97v24.5h-6.93V48.09h-11.1V67.82z" class="st0"/><path d="M97.52,50.04V74.3h6.39V66c2.14,2.31,5.63,2.49,6.47,2.49c6.1,0,9.84-3.89,9.84-9.52c0-5.88-3.7-9.59-9.71-9.59	c-1.52,0-4.46,0.25-6.9,2.8h-0.13l0.04-2.14H97.52z M103.62,58.9c0-4.97,3.07-5.95,5-5.95c1.89,0,4.96,0.98,4.96,5.95	c0,3.08-1.3,6.02-4.96,6.02C104.88,64.92,103.62,61.98,103.62,58.9z" class="st0"/><path d="M136.07,65.69c-2.35,2.2-4.62,2.8-7.15,2.8c-6.89,0-7.15-5.18-7.15-7.31V50.05h6.39v10.29	c0,3.54,1.22,4.59,3.57,4.59c4.03,0,4.33-3.61,4.33-4.9v-9.98h6.39v17.78h-6.39V65.69z" class="st0"/><path d="M151.63,60.34h3.91c3.02,0,3.66,0.91,3.66,2.1c0,0.77-0.42,1.82-3.58,1.82h-3.99V60.34z M145.24,50.05v17.78	h12.7c4.62,0,7.82-0.91,7.82-4.55c0-2.8-1.56-4.02-5.09-4.65v-0.11c2.31-0.31,4.33-1.75,4.33-4.16c0-4.31-5.05-4.31-7.02-4.31	H145.24z M151.63,53.62h3.44c1.81,0,3.36,0.28,3.36,1.75c0,1.61-2.44,1.65-3.49,1.65h-3.32V53.62z" class="st0"/><path d="M173.82,55.78c0-2.62,2.77-2.83,3.91-2.83c0.72,0,3.36,0.04,3.45,2.34c0,0.18,0,0.31,0,0.49	c-0.13,1.75-1.81,1.4-6.51,1.99c-3.87,0.52-7.95,1.5-7.95,5.56c0,1.47,0.63,5.14,7.44,5.14c2.61,0,5.47-0.67,7.15-2.42h0.13	l0.54,1.75h6.73v-0.31c-1.22-0.25-1.3-1.43-1.26-3.36l0.13-8.12c0.04-2.06-0.17-6.65-9.79-6.65c-2.31,0-9.75,0.21-10.05,6.4H173.82z M181.22,60.47c0,3.57-3.11,4.45-4.66,4.45c-1.18,0-3.28-0.39-3.28-2.07c0-2,2.4-2.38,3.74-2.56c2.48-0.35,2.27-0.24,4.2-0.95V60.47	z" class="st0"/><path d="M188.28,53.62v-3.57h20.51v3.57h-7.06v14.21h-6.39V53.62H188.28z" class="st0"/><path d="M216.96,48.09h15.93v-4.76h-22.87v24.5h14.04c6.81,0,11.18-2.38,11.18-7.38c0-7.84-8.74-8.01-11.18-8.01h-7.1	V48.09z M216.96,57.19h5.76c1.69,0,5.05,0.18,5.05,3.11c0,2.31-2.44,2.76-5.17,2.76h-5.63V57.19z" class="st0"/><path d="M243.57,55.78c0-2.62,2.78-2.83,3.91-2.83c0.72,0,3.36,0.04,3.45,2.34c0,0.18,0,0.31,0,0.49	c-0.13,1.75-1.81,1.4-6.52,1.99c-3.86,0.52-7.94,1.5-7.94,5.56c0,1.47,0.63,5.14,7.44,5.14c2.61,0,5.46-0.67,7.15-2.42h0.13	l0.55,1.75h6.73v-0.31c-1.21-0.25-1.3-1.43-1.26-3.36l0.13-8.12c0.04-2.06-0.17-6.65-9.8-6.65c-2.31,0-9.75,0.21-10.05,6.4H243.57z M250.96,60.47c0,3.57-3.11,4.45-4.66,4.45c-1.18,0-3.28-0.39-3.28-2.07c0-2,2.39-2.38,3.74-2.56c2.48-0.35,2.27-0.24,4.21-0.95	V60.47z" class="st0"/><path d="M266.43,67.82h-6.39V50.05h6.39v6.69h7.69v-6.69h6.39v17.78h-6.39V60.3h-7.69V67.82z" class="st0"/><path d="M296.66,50.05h7.1l-8.78,8.33l9.21,9.45h-7.48l-6.89-7.77h-0.13v7.77h-6.39V50.05h6.39v7.14h0.13L296.66,50.05z" class="st0"/><path d="M22.78,67.89h16.01V51.9H22.78V67.89z" class="st1"/><path d="M55.27,35.45c0,5.44,0,18.55,0,23.99c-1.52,0-1.79,0-3.27,0c-1.41-11.86-8.87-19.31-20.75-20.72	c0-1.48,0-1.74,0-3.26C36.7,35.45,49.83,35.45,55.27,35.45z M22.8,27v19.9h4.23c11.14,0,16.79,5.64,16.79,16.76v4.23h19.92V27H22.8z" class="st0"/></svg>