<svg width="78" height="8" viewBox="0 0 78 8" fill="none" xmlns="http://www.w3.org/2000/svg">
<path fill-rule="evenodd" clip-rule="evenodd" d="M72.6604 0.0238759H74.1556V4.64056H74.2401L76.1844 2.42287L77.5635 2.4194L75.4305 4.84344L78 7.87495H76.2779L74.1772 5.05328H74.1556V7.87495H72.6604V0.0238759V0.0238759ZM1.57861 0.375013V4.68011C1.57861 6.14675 2.02591 6.94836 3.27927 6.94836C4.47872 6.94836 4.95838 5.97639 4.95838 4.76495V0.375013H6.37155V5.03302C6.37155 6.92693 5.09368 8 3.23488 8C1.10664 8 0 7.00194 0 4.95807L7.4352e-05 0.375013H1.57861V0.375013ZM9.67473 3.14836C10.1807 2.63506 10.885 2.38858 11.5915 2.38858C12.9018 2.38858 13.5952 3.07216 13.5952 4.42136V7.87022L12.1084 7.87029V4.58358C12.1084 3.83311 11.7616 3.34015 10.9873 3.34015C10.2591 3.34015 9.68729 3.80112 9.68729 4.68004V7.87022L8.1986 7.87029V2.51592H9.67473V3.14836V3.14836ZM15.345 7.87029H16.8343V2.51592H15.345V7.87029ZM15.1989 0.91033C15.1989 0.503981 15.5564 0.0854422 16.0624 0.0854422C16.5774 0.0854422 16.9786 0.492895 16.9786 0.91033C16.9786 1.37011 16.6337 1.80957 16.084 1.80957C15.557 1.80957 15.1989 1.37011 15.1989 0.91033ZM20.129 7.87029L17.7457 2.49323H19.3236C19.8062 3.72499 20.3069 4.88358 20.7763 6.37165L20.7991 6.37173C21.3051 4.88358 21.7812 3.72507 22.2956 2.49331L23.6926 2.49323L21.1691 7.87029H20.129V7.87029ZM28.1239 4.55166C28.182 3.73549 27.879 3.18036 27.1419 3.18036C26.2873 3.18036 25.9041 3.83319 25.9203 4.55166H28.1239ZM25.8957 5.32245C25.8622 6.32982 26.6011 7.07799 27.5305 7.07799C28.0826 7.07799 28.6622 6.89603 29.0335 6.64903L29.4587 7.39949C28.697 7.82735 27.9006 8 27.2628 8C25.5711 8 24.3064 6.85309 24.3064 5.08653C24.3064 3.43682 25.5591 2.38872 27.1616 2.38872C28.909 2.38872 29.6377 3.72632 29.5275 5.32259L25.8957 5.32245V5.32245ZM32.4505 3.45818H32.4714L32.7744 3.04082C32.9409 2.80424 33.2775 2.38858 33.7367 2.38858C34.0726 2.38858 34.4325 2.56005 34.7464 2.86928L34.1846 3.85455C33.9385 3.73541 33.781 3.67259 33.4804 3.67259C32.9649 3.67259 32.4612 4.06903 32.4612 5.22466V7.87015L30.9672 7.87029V2.51592H32.4505V3.45818V3.45818ZM38.7219 3.52219C38.3866 3.28679 38.0393 3.18036 37.7686 3.18036C37.4333 3.18036 37.0967 3.36173 37.0967 3.72617C37.0967 4.15462 37.6357 4.40162 38.262 4.83879C39.0597 5.40907 39.2926 5.96538 39.2926 6.45539C39.2926 7.20763 38.4291 7.99993 37.1991 7.99993C36.4254 7.99993 35.8548 7.74184 35.3296 7.389L35.7996 6.64903C36.1338 6.90771 36.6146 7.16291 37.0171 7.16291C37.4458 7.16291 37.8249 6.94843 37.8249 6.49907C37.8249 5.99568 37.2416 5.71778 36.7057 5.35334C36.0667 4.93657 35.6314 4.52904 35.6314 3.86637C35.6314 3.01886 36.4805 2.38872 37.5776 2.38872C38.1962 2.38872 38.7992 2.5375 39.2052 2.88169L38.722 3.52226L38.7219 3.52219ZM42.9652 5.02194C42.2383 5.24691 41.8688 5.64277 41.8688 6.25258C41.8688 6.72464 42.1825 7.04607 42.5436 7.04607C43.1347 7.04607 43.9084 6.33862 43.7976 4.76503L42.9652 5.02194V5.02194ZM43.4383 7.357C43.0341 7.67842 42.5191 7.99993 42.0054 7.99993C41.1311 7.99993 40.4005 7.357 40.4005 6.37173C40.4005 5.35327 41.1754 4.78654 42.4754 4.42143L43.7976 4.04649C43.7198 3.5547 43.2586 3.24488 42.7796 3.24488C42.1388 3.24488 41.6903 3.46986 41.2987 3.79129L40.8154 3.11643C41.5119 2.57061 42.1933 2.38865 42.9652 2.38865C43.9982 2.38865 45.2647 2.70779 45.2647 4.38019V6.56359C45.2647 6.99256 45.3192 7.49713 45.5 7.87036L43.921 7.87029C43.806 7.68774 43.7742 7.37851 43.7742 7.08901L43.4383 7.357V7.357ZM46.9337 7.87029H48.4247V0H46.9337V7.87029V7.87029ZM61.6186 5.02194C60.8893 5.24691 60.5198 5.64277 60.5198 6.25258C60.5198 6.72464 60.8318 7.04607 61.1923 7.04607C61.7833 7.04607 62.5576 6.33862 62.4486 4.76503L61.6186 5.02194V5.02194ZM62.0857 7.357C61.6845 7.67842 61.1684 7.99993 60.6528 7.99993C59.7802 7.99993 59.0503 7.357 59.0503 6.37173C59.0503 5.35327 59.824 4.78654 61.1253 4.42143L62.4487 4.04649C62.3666 3.5547 61.9097 3.24488 61.4247 3.24488C60.7881 3.24488 60.339 3.46986 59.9475 3.79129L59.4654 3.11643C60.1601 2.57061 60.8445 2.38865 61.6188 2.38865C62.6469 2.38865 63.9117 2.70779 63.9117 4.38019V6.56359C63.9117 6.99256 63.9674 7.49713 64.1458 7.87036L62.569 7.87029C62.4582 7.68774 62.421 7.37851 62.421 7.08901L62.0857 7.357V7.357ZM67.0602 3.14836C67.565 2.63506 68.2716 2.38858 68.9765 2.38858C70.2867 2.38858 70.9807 3.07216 70.9807 4.42136V7.87022L69.4914 7.87029V4.58358C69.4914 3.83311 69.144 3.34015 68.3709 3.34015C67.6422 3.34015 67.0715 3.80112 67.0715 4.68004V7.87022L65.5823 7.87029V2.51592H67.0602V3.14836V3.14836ZM53.8591 6.96868H54.6651C55.5394 6.96868 56.2023 6.5304 56.2023 5.6962C56.2023 4.81728 55.5184 4.44294 54.6561 4.44294H53.8591V6.96868ZM53.8591 3.52219H54.3543C55.2627 3.52219 55.8796 2.96587 55.8796 2.26833C55.8796 1.60566 55.3616 1.31735 54.6789 1.31735L53.8584 1.31727V3.52219H53.8591V3.52219ZM52.2811 7.89062V0.395338H55.116C56.4364 0.395338 57.3676 0.973157 57.3676 1.99043C57.3676 3.18908 56.3483 3.68316 55.7998 3.82152V3.84302C56.7747 3.88663 57.8598 4.52779 57.8598 5.67351C57.8598 6.96869 56.7274 7.89062 54.8819 7.89062H52.2811Z" fill="black" fill-opacity="0.6"/>
</svg>
